<?xml version="1.0" encoding="UTF-8" standalone="no"?>
<!-- Created with Inkscape (http://www.inkscape.org/) -->

<svg
   xmlns:dc="http://purl.org/dc/elements/1.1/"
   xmlns:cc="http://creativecommons.org/ns#"
   xmlns:rdf="http://www.w3.org/1999/02/22-rdf-syntax-ns#"
   xmlns:svg="http://www.w3.org/2000/svg"
   xmlns="http://www.w3.org/2000/svg"
   xmlns:sodipodi="http://sodipodi.sourceforge.net/DTD/sodipodi-0.dtd"
   xmlns:inkscape="http://www.inkscape.org/namespaces/inkscape"
   width="500"
   height="600"
   viewBox="0 0 500.00001 600.00002"
   id="svg2"
   version="1.1"
   inkscape:version="0.91 r13725"
   sodipodi:docname="speech balloon with cat's face.svg">
  <defs
     id="defs4">
    <symbol
       id="symbol78265">
      <title
         id="title78267">Local Bar</title>
      <path
         d="m 22,26 0,12 -10,0 0,4 24,0 0,-4 -10,0 0,-12 16,-16 0,-4 -36,0 0,4 16,16 z m -7,-12 -4,-4 26,0 -4,4 -18,0 z"
         style="stroke:none"
         id="path78269"
         inkscape:connector-curvature="0" />
    </symbol>
    <symbol
       id="symbol78483">
      <title
         id="title78485">Terrain</title>
      <path
         d="M 28,12 20.5,22 26.2,29.6 23,32 C 19.62,27.5 14,20 14,20 L 2,36 46,36 28,12 Z"
         style="stroke:none"
         id="path78487"
         inkscape:connector-curvature="0" />
    </symbol>
    <symbol
       id="icon-writer"
       viewBox="0 0 1024 1024">
      <title
         id="title82998">writer</title>
      <path
         class="path1"
         d="m 956.918,0 c -3.584,0.758 -149.99,33.782 -305.971,85.171 -79.708,26.26 -163.092,57.866 -234.691,94.321 -71.599,36.455 -131.917,76.168 -165.699,128.197 -61.824,95.206 -74.56,225.979 -74.803,333.338 -0.2,85.069 8.448,155.786 12.083,181.811 L 0,1024 93.993,1023.711 240.998,865.357 c 31.788,4.362 89.759,10.982 156.017,11.871 99.533,1.331 217.201,-7.265 295.88,-67.046 41.426,-31.473 78.024,-87.235 115.21,-154.532 C 845.294,588.353 881.441,509.551 913.347,434.092 977.17,283.188 1024,145.357 1024,145.357 l -58.56,-23.099 c 0,0 -46.195,135.834 -108.846,283.981 -11.277,26.67 -23.101,53.714 -35.251,80.41 l -172.831,0 0,67.174 141.036,0 c -11.592,23.519 -23.314,46.259 -35.034,67.466 -2.714,4.908 -5.432,9.708 -8.156,14.451 l -214.513,0 0,67.18 171.674,0 c -17.364,24.102 -33.48,42.419 -46.574,52.367 -55.066,41.838 -164.762,56.033 -259.154,54.769 -40.33,-0.538 -73.882,-2.934 -100.275,-5.581 L 999.158,48.676 Z M 871.562,90.593 243.763,762.939 c -2.944,-29.251 -5.765,-69.914 -5.645,-121.743 0.23,-101.023 15.455,-220.943 63.544,-294.999 9.318,-14.349 24.781,-29.967 44.902,-45.875 l 0,200.893 62.367,0 0,-242.552 c 10.829,-6.254 22.162,-12.424 33.971,-18.437 13.507,-6.876 27.589,-13.609 42.074,-20.198 l 0,138.977 62.367,0 0,-165.504 c 39.88,-15.928 81.28,-30.72 121.838,-44.083 75.53,-24.883 147.789,-44.826 202.378,-58.824 z"
         id="path83000"
         inkscape:connector-curvature="0" />
    </symbol>
    <symbol
       id="icon-edit"
       viewBox="0 0 1024 1024">
      <title
         id="title82938">edit</title>
      <path
         class="path1"
         d="M 740.291,1.894 139.213,602.964 2.816,1022.105 422.897,881.075 1021.184,282.79 Z m 0,90.509 L 930.678,282.79 404.122,809.338 215.816,616.872 Z M 181.486,680.046 342.221,840.781 188.585,892.703 131.113,835.231 Z"
         id="path82940"
         inkscape:connector-curvature="0" />
    </symbol>
    <symbol
       id="icon-customize"
       viewBox="0 0 1024 1024">
      <title
         id="title83023">customize</title>
      <path
         class="path1"
         d="M 740.291,1.889 139.213,602.964 2.816,1022.113 422.894,881.075 480.095,823.874 C 454.869,818.9 406.403,808.706 405.041,808.419 l -0.922,0.916 L 215.813,616.874 740.29,92.397 930.677,282.784 809.415,404.041 819.699,484.266 1021.184,282.781 740.291,1.888 Z M 721.49,417.774 c -28.303,0 -31.882,0.22 -35.546,2.186 -7.181,3.85 -7.921,6.861 -10.752,43.479 -1.416,18.271 -3.059,33.812 -3.653,34.534 -0.589,0.73 -5.473,2.56 -10.849,4.063 -15.447,4.326 -29.952,10.156 -45.786,18.412 -8.064,4.198 -15.304,7.642 -16.095,7.642 -0.794,0 -11.812,-8.858 -24.489,-19.686 -28.467,-24.32 -29.268,-24.934 -34.035,-25.948 -6.835,-1.452 -12.526,2.616 -34.348,24.568 -21.427,21.55 -24.865,26.452 -23.406,33.344 0.983,4.634 1.748,5.64 25.907,33.856 10.836,12.652 19.699,23.667 19.699,24.484 0,0.819 -3.438,8.082 -7.642,16.143 -8.256,15.834 -14.09,30.336 -18.414,45.786 -1.505,5.376 -3.328,10.266 -4.055,10.854 -0.727,0.594 -16.269,2.235 -34.534,3.648 -36.618,2.831 -39.634,3.579 -43.487,10.76 -1.964,3.661 -2.184,7.24 -2.184,35.546 0,28.303 0.22,31.88 2.184,35.543 3.84,7.163 6.912,7.926 42.89,10.691 17.946,1.382 33.434,2.747 34.422,3.041 1.111,0.333 2.883,4.498 4.634,10.916 4.265,15.631 10.061,30.116 18.545,46.395 4.204,8.064 7.642,15.329 7.642,16.146 0,0.819 -8.463,11.366 -18.806,23.45 -29.839,34.849 -29.714,34.637 -25.19,43.991 3.584,7.393 43.136,46.254 49.037,48.174 7.514,2.445 11.023,0.317 39.096,-23.7 l 26.099,-22.323 14.405,7.57 c 17.326,9.106 34.867,16.195 48.64,19.648 6.835,1.715 10.368,3.187 10.757,4.49 0.323,1.068 1.708,16.62 3.08,34.56 2.757,35.981 3.52,39.05 10.68,42.89 3.661,1.966 7.245,2.186 35.546,2.186 28.303,0 31.882,-0.22 35.546,-2.186 7.16,-3.84 7.923,-6.912 10.68,-42.89 1.37,-17.94 2.755,-33.467 3.067,-34.504 0.376,-1.254 4.659,-2.985 12.705,-5.14 15.027,-4.027 28.334,-9.441 45.645,-18.565 7.332,-3.866 14.042,-7.03 14.907,-7.03 0.865,0 11.942,8.863 24.62,19.694 12.677,10.829 24.806,21.053 26.962,22.72 5.555,4.301 12.588,4.288 18.834,-0.038 7.956,-5.517 42.906,-41.651 44.902,-46.438 3.4,-8.136 2.15,-10.332 -22.111,-38.792 -12.324,-14.464 -22.41,-27.018 -22.41,-27.904 0,-0.891 3.162,-7.616 7.027,-14.95 9.126,-17.306 14.541,-30.618 18.565,-45.645 2.158,-8.046 3.891,-12.329 5.14,-12.708 1.039,-0.312 16.563,-1.69 34.509,-3.064 35.978,-2.757 39.048,-3.523 42.888,-10.683 1.964,-3.661 2.184,-7.24 2.184,-35.546 0,-28.303 -0.218,-31.88 -2.181,-35.543 -3.855,-7.186 -6.861,-7.928 -43.482,-10.742 -22.036,-1.69 -33.741,-3.054 -34.775,-4.05 -0.858,-0.824 -2.596,-5.545 -3.866,-10.488 -3.456,-13.501 -9.843,-29.42 -18.365,-45.765 -4.204,-8.064 -7.647,-15.355 -7.647,-16.205 0,-0.852 9.815,-13.01 21.811,-27.021 23.485,-27.433 25.626,-30.991 23.188,-38.492 -1.91,-5.862 -40.786,-45.453 -48.12,-49.006 -8.812,-4.262 -10.458,-3.372 -39.757,21.555 -14.495,12.326 -26.998,22.413 -27.786,22.413 -0.794,0 -8.056,-3.456 -16.154,-7.68 -15.839,-8.269 -34.33,-15.616 -48.113,-19.123 -5.274,-1.344 -8.812,-2.893 -9.139,-4.006 -0.294,-0.998 -1.664,-16.486 -3.039,-34.432 -2.765,-35.978 -3.533,-39.048 -10.696,-42.888 -3.661,-1.966 -7.245,-2.186 -35.546,-2.186 z m 3.021,171.041 c 28.293,0.581 56.402,10.225 79.898,29.025 41.293,33.034 58.573,86.185 45.128,138.778 -3.43,13.396 -14.894,35.845 -24.325,47.611 -21.432,26.734 -51.858,43.904 -86.52,48.837 -7.588,1.075 -25.948,1.444 -30.244,0.602 -0.978,-0.192 -5.78,-0.998 -10.675,-1.792 -16.604,-2.703 -35.297,-10.273 -50.414,-20.424 -41.37,-27.776 -64.384,-78.715 -57.49,-127.214 4.531,-31.872 21.01,-62.702 44.16,-82.627 26.112,-22.477 58.419,-33.459 90.486,-32.799 z m -543.027,91.231 160.737,160.735 -153.636,51.917 -57.472,-57.467 50.373,-155.187 z"
         id="path83025"
         inkscape:connector-curvature="0" />
    </symbol>
    <symbol
       id="icon-powerful"
       viewBox="0 0 1024 1024">
      <title
         id="title83048">powerful</title>
      <path
         class="path1"
         d="m 404.882,64.86 c 0,9.83 -167.066,577.843 -167.066,577.843 L 495.703,585.753 357.709,1023.999 786.181,357.708 495.293,406.847 693.803,-0.001 Z"
         id="path83050"
         inkscape:connector-curvature="0" />
    </symbol>
    <symbol
       id="icon-gift"
       viewBox="0 0 24 28">
      <title
         id="title70391">gift</title>
      <path
         class="path1"
         d="m 14.5,21.187 0,-11.188 -5,0 0,11.188 c 0,0.547 0.453,0.812 1,0.812 l 3,0 c 0.547,0 1,-0.266 1,-0.812 z M 7.375,8 10.422,8 8.453,5.484 C 8.281,5.281 7.906,5 7.375,5 c -0.828,0 -1.5,0.672 -1.5,1.5 0,0.828 0.672,1.5 1.5,1.5 z M 18.125,6.5 C 18.125,5.672 17.453,5 16.625,5 16.094,5 15.719,5.281 15.547,5.484 L 13.594,8 16.625,8 c 0.828,0 1.5,-0.672 1.5,-1.5 z m 5.875,4 0,5 c 0,0.281 -0.219,0.5 -0.5,0.5 l -1.5,0 0,6.5 c 0,0.828 -0.672,1.5 -1.5,1.5 l -17,0 C 2.672,24 2,23.328 2,22.5 L 2,16 0.5,16 C 0.219,16 0,15.781 0,15.5 l 0,-5 C 0,10.219 0.219,10 0.5,10 l 6.875,0 C 5.438,10 3.875,8.437 3.875,6.5 3.875,4.563 5.438,3 7.375,3 8.422,3 9.391,3.438 10,4.203 l 2,2.578 2,-2.578 C 14.609,3.437 15.578,3 16.625,3 c 1.937,0 3.5,1.563 3.5,3.5 0,1.937 -1.563,3.5 -3.5,3.5 l 6.875,0 c 0.281,0 0.5,0.219 0.5,0.5 z"
         id="path70393"
         inkscape:connector-curvature="0" />
    </symbol>
    <symbol
       id="icon-bullhorn"
       viewBox="0 0 28 28">
      <title
         id="title70641">bullhorn</title>
      <path
         class="path1"
         d="m 26,10 c 1.109,0 2,0.891 2,2 0,1.109 -0.891,2 -2,2 l 0,6 c 0,1.094 -0.906,2 -2,2 -2.781,-2.312 -7.266,-5.484 -12.688,-5.938 -1.859,0.625 -2.5,2.797 -1.281,4.047 -1.094,1.797 0.313,3.063 1.969,4.359 -0.969,1.906 -5,1.937 -6.438,0.609 -0.906,-2.781 -2.25,-5.563 -1.156,-9.078 l -1.906,0 c -1.375,0 -2.5,-1.125 -2.5,-2.5 l 0,-3 c 0,-1.375 1.125,-2.5 2.5,-2.5 l 7.5,0 c 6,0 11,-3.5 14,-6 1.094,0 2,0.906 2,2 l 0,6 z M 24,19.437 24,4.531 C 19.922,7.656 15.969,9.453 12,9.89 l 0,4.219 c 3.969,0.438 7.922,2.203 12,5.328 z"
         id="path70643"
         inkscape:connector-curvature="0" />
    </symbol>
    <symbol
       id="CircleBalloon"
       style="stroke-linejoin:miter;stroke-miterlimit:10">
      <title
         id="title7309">Circle Balloon</title>
      <ellipse
         cx="205"
         cy="125"
         rx="125"
         ry="70"
         style="stroke:none"
         id="ellipse7311" />
      <path
         d="m 110,166 c 11,21 -10,30 -22,43 32,-3 59,-7 70,-26"
         style="stroke:none"
         id="path7313"
         inkscape:connector-curvature="0" />
      <ellipse
         cx="200"
         cy="120"
         rx="125"
         ry="70"
         style="fill:#eeeeee;stroke-width:3.5"
         id="ellipse7315" />
      <path
         d="m 106,162 c 11,21 -10,30 -22,43 32,-3 59,-7 70,-26"
         style="fill:#eeeeee;stroke-width:3.5"
         id="path7317"
         inkscape:connector-curvature="0" />
      <ellipse
         cx="197"
         cy="117"
         rx="117"
         ry="63"
         style="fill:#ffffff;stroke:none"
         id="ellipse7319" />
      <path
         d="m 103,149 c 14,25 9,34 -6,47 30,-3 50,-10 58,-31"
         style="fill:#ffffff;stroke:none"
         id="path7321"
         inkscape:connector-curvature="0" />
    </symbol>
    <symbol
       viewBox="0 0 64 64"
       id="emoji-1f63a">
      <title
         id="title54836">1f63a</title>
      <path
         d="m 60.861,2 c 1.797,13.431 1.51,24.233 -1.166,31.132 L 34.889,14.677 C 39.816,9.584 49.818,3.459 60.861,2 Z"
         id="path54838"
         inkscape:connector-curvature="0"
         style="fill:#dadee0" />
      <path
         d="M 57.738,32.18 47.484,18.927 c 0,0 1.938,-7.285 11.615,-12.438 C 62,18.145 57.738,32.18 57.738,32.18"
         id="path54840"
         inkscape:connector-curvature="0"
         style="fill:#f7a4a4" />
      <path
         d="m 53.836,29.16 -6.352,-8.209 c 0,0 2.574,-5.02 8.568,-8.216 -3.497,7.563 -2.216,16.425 -2.216,16.425"
         id="path54842"
         inkscape:connector-curvature="0"
         style="fill:#f78d8d" />
      <path
         d="M 3.139,2 C 1.342,15.431 1.629,26.233 4.305,33.132 L 29.114,14.677 C 24.186,9.584 14.182,3.459 3.139,2 Z"
         id="path54844"
         inkscape:connector-curvature="0"
         style="fill:#dadee0" />
      <path
         d="M 6.262,32.177 16.518,18.924 c 0,0 -1.939,-7.285 -11.617,-12.438 C 2,18.142 6.262,32.177 6.262,32.177 Z"
         id="path54846"
         inkscape:connector-curvature="0"
         style="fill:#f7a4a4" />
      <path
         d="m 10.166,29.16 6.352,-8.209 c 0,0 -2.574,-5.02 -8.568,-8.216 3.497,7.563 2.216,16.425 2.216,16.425"
         id="path54848"
         inkscape:connector-curvature="0"
         style="fill:#f78d8d" />
      <path
         d="m 58.2,50.754 c 0.846,-0.881 1.416,-1.633 1.662,-2.162 1.629,-2.643 2.143,-5.342 2.143,-5.342 l -2,0.424 c 0,0 2.318,-2.463 1.691,-7.793 l -1.945,2.102 c 0,0 1.945,-5.41 0.254,-10.4 l -2.152,1.588 c 0,0 0.654,-2.031 0.053,-3.422 l -0.932,0.729 c 0,0 1.689,-4.665 0.154,-6.625 -0.855,2.827 -1.871,2.784 -1.871,2.784 0,0 1.242,-2.116 0.273,-3 -0.986,1.594 -1.807,0.558 -1.768,0.079 0.055,-0.637 -0.193,-1.534 2.703,-1.957 -2.314,-1.414 -5.05,-0.43 -5.05,-0.43 0,0 0.098,-1.489 2.123,-1.43 -1.871,-1.593 -4.48,-0.648 -4.48,-0.648 l 0.006,0.017 c -4.111,-3.11 -9.645,-4.902 -17.05,-4.902 -7.405,0 -12.941,1.792 -17.05,4.902 l 0.006,-0.017 c 0,0 -2.609,-0.944 -4.48,0.648 2.027,-0.06 2.125,1.43 2.125,1.43 0,0 -2.742,-0.984 -5.057,0.43 2.898,0.423 2.65,1.32 2.703,1.957 0.039,0.479 -0.779,1.515 -1.768,-0.079 -0.967,0.887 0.275,3 0.275,3 0,0 -1.016,0.043 -1.871,-2.784 -1.537,1.96 0.154,6.625 0.154,6.625 L 6.119,25.749 c -0.602,1.391 0.053,3.422 0.053,3.422 L 4.018,27.583 c -1.691,4.99 0.254,10.4 0.254,10.4 L 2.327,35.881 c -0.625,5.33 1.691,7.793 1.691,7.793 l -2,-0.424 c 0,0 0.514,2.694 2.141,5.339 0.25,0.534 0.834,1.304 1.699,2.202 0.023,0.024 0.043,0.049 0.066,0.072 l 0,-0.004 C 9.991,55.042 20.137,62 32.014,62 c 11.883,0 22.03,-6.96 26.1,-11.142 l 0,0.005 c 0.035,-0.036 0.066,-0.072 0.099,-0.109"
         id="path54850"
         inkscape:connector-curvature="0"
         style="fill:#dadee0" />
      <g
         id="g54852"
         style="fill:#94989b">
        <path
           d="M 37.686,10.763 C 35.924,10.505 34.036,10.362 32,10.362 c -2.036,0 -3.926,0.144 -5.689,0.401 0.736,3.856 2.75,6.583 5.688,11.585 2.98,-5.079 4.964,-7.756 5.687,-11.585"
           id="path54854"
           inkscape:connector-curvature="0" />
        <path
           d="m 46.813,13.785 c -1.908,-1.092 -4.072,-1.944 -6.523,-2.523 0.59,2.29 1.857,3.921 3.627,6.935 1.237,-2.111 2.216,-2.663 2.896,-4.412"
           id="path54856"
           inkscape:connector-curvature="0" />
        <path
           d="m 23.709,11.263 c -2.451,0.579 -4.615,1.431 -6.521,2.522 0.686,1.765 1.666,2.323 2.891,4.411 1.794,-3.057 3.048,-4.664 3.63,-6.933"
           id="path54858"
           inkscape:connector-curvature="0" />
      </g>
      <g
         id="g54860"
         style="fill:#4c5359">
        <path
           d="M 36.04,38.767 C 35.229,37.822 32.741,37.749 32,37.749 c -0.742,0 -3.232,0.072 -4.04,1.018 -0.576,0.674 -0.131,2.344 1.406,3.785 0.969,0.91 1.895,1.197 2.637,1.197 0.744,0 1.67,-0.287 2.639,-1.197 1.535,-1.442 1.982,-3.112 1.404,-3.785"
           id="path54862"
           inkscape:connector-curvature="0" />
        <path
           d="m 43.744,45.861 c 0,4.74 -3.9,10.275 -11.744,10.275 -7.844,0 -11.742,-5.535 -11.742,-10.275 0,0 3.898,0 11.742,0 7.844,0 11.744,0 11.744,0"
           id="path54864"
           inkscape:connector-curvature="0" />
      </g>
      <path
         d="m 32,51.38 c -4.539,0 -5.834,3.345 -5.834,3.345 0.688,1.49 10.98,1.489 11.666,0 0,0 -1.295,-3.345 -5.832,-3.345"
         id="path54866"
         inkscape:connector-curvature="0"
         style="fill:#ff717f" />
      <path
         d="m 32,56.87 c -8.104,0 -12.477,-5.671 -12.477,-11.01 l 0,-0.733 24.953,0 0,0.733 C 44.477,51.198 40.104,56.87 32,56.87 M 21.023,46.595 c 0.385,4.396 4.205,8.808 10.977,8.808 6.773,0 10.592,-4.412 10.977,-8.808 l -21.954,0"
         id="path54868"
         inkscape:connector-curvature="0"
         style="fill:#4c5359" />
      <path
         d="m 24.299,30.84 c 0,0 -0.484,-4.569 -4.508,-6.03 -4.539,-1.651 -7.637,2.386 -8.477,4.694 -1.24,3.407 0.316,7.133 0.777,7.992 0.307,0.566 3.66,3.241 11.221,0.709 10e-4,0 1.881,-3.789 0.987,-7.361"
         id="path54870"
         inkscape:connector-curvature="0"
         style="fill:#ffffff" />
      <path
         d="m 24.299,30.84 c -0.404,-1.559 -1.133,-3.039 -2.254,-4.094 -0.547,-0.535 -1.18,-0.962 -1.869,-1.245 -0.346,-0.146 -0.695,-0.255 -1.074,-0.347 -0.338,-0.083 -0.719,-0.125 -1.076,-0.139 -1.451,-0.041 -2.832,0.578 -3.896,1.6 -1.061,1.01 -1.938,2.329 -2.289,3.713 -0.383,1.406 -0.313,2.951 0.021,4.435 0.16,0.743 0.391,1.487 0.688,2.173 l 0.113,0.243 c -0.031,-0.054 0.014,0.022 0.018,0.026 0.002,0 0,-0.005 -0.002,-0.006 l 0.055,0.063 c 0.098,0.103 0.23,0.209 0.369,0.312 0.283,0.203 0.602,0.384 0.941,0.532 1.365,0.595 2.949,0.792 4.518,0.751 1.586,-0.006 3.168,-0.31 4.752,-0.655 -1.479,0.668 -3.057,1.128 -4.691,1.388 -1.635,0.219 -3.361,0.197 -5.01,-0.396 C 13.201,39.047 12.799,38.86 12.406,38.62 12.211,38.496 12.021,38.358 11.83,38.179 11.781,38.131 11.738,38.088 11.68,38.02 l -0.098,-0.124 -0.063,-0.102 -0.156,-0.299 c -0.379,-0.78 -0.662,-1.574 -0.879,-2.4 -0.416,-1.645 -0.529,-3.423 -0.09,-5.15 0.49,-1.739 1.49,-3.206 2.791,-4.381 1.305,-1.15 3.121,-1.924 4.922,-1.71 0.445,0.051 0.867,0.126 1.307,0.269 0.396,0.126 0.811,0.285 1.189,0.498 0.768,0.412 1.447,0.973 1.984,1.634 1.048,1.342 1.638,2.963 1.714,4.585"
         id="path54872"
         inkscape:connector-curvature="0"
         style="fill:#b2b6b8" />
      <path
         d="m 39.699,30.84 c 0,0 0.484,-4.568 4.508,-6.03 4.539,-1.651 7.637,2.387 8.477,4.694 1.24,3.407 -0.316,7.133 -0.777,7.992 -0.307,0.566 -3.66,3.241 -11.221,0.709 0,0 -1.881,-3.789 -0.987,-7.361"
         id="path54874"
         inkscape:connector-curvature="0"
         style="fill:#ffffff" />
      <path
         d="m 39.699,30.84 c 0.076,-1.622 0.666,-3.243 1.715,-4.587 0.537,-0.661 1.219,-1.222 1.984,-1.634 0.379,-0.213 0.793,-0.372 1.191,-0.498 0.438,-0.143 0.859,-0.218 1.307,-0.269 1.799,-0.214 3.615,0.56 4.92,1.71 1.301,1.175 2.301,2.642 2.791,4.382 0.439,1.728 0.326,3.505 -0.088,5.15 -0.219,0.825 -0.502,1.619 -0.881,2.399 l -0.156,0.299 -0.063,0.102 -0.098,0.124 c -0.059,0.068 -0.102,0.111 -0.15,0.159 -0.191,0.18 -0.381,0.317 -0.576,0.441 -0.393,0.24 -0.795,0.427 -1.207,0.574 -1.65,0.593 -3.377,0.614 -5.01,0.396 -1.635,-0.26 -3.213,-0.72 -4.691,-1.388 1.584,0.346 3.166,0.649 4.752,0.655 1.568,0.041 3.152,-0.156 4.518,-0.751 0.34,-0.148 0.658,-0.329 0.941,-0.532 0.139,-0.103 0.271,-0.209 0.369,-0.312 l 0.055,-0.063 c -0.002,10e-4 -0.004,0.006 -0.002,0.007 0.004,-0.005 0.049,-0.081 0.018,-0.027 l 0.113,-0.243 c 0.297,-0.686 0.527,-1.43 0.688,-2.173 0.334,-1.483 0.404,-3.03 0.021,-4.435 -0.352,-1.384 -1.229,-2.705 -2.289,-3.713 -1.064,-1.021 -2.445,-1.641 -3.896,-1.6 -0.357,0.014 -0.738,0.056 -1.076,0.139 -0.377,0.092 -0.729,0.2 -1.072,0.347 -0.691,0.283 -1.324,0.71 -1.871,1.245 -1.122,1.058 -1.85,2.537 -2.255,4.096"
         id="path54876"
         inkscape:connector-curvature="0"
         style="fill:#b2b6b8" />
      <g
         id="g54878"
         style="fill:#4c5359">
        <ellipse
           cx="44"
           cy="32.5"
           rx="4"
           ry="4.5"
           id="ellipse54880" />
        <ellipse
           cx="20"
           cy="32.5"
           rx="4"
           ry="4.5"
           id="ellipse54882" />
      </g>
    </symbol>
    <symbol
       id="SquaredBalloon"
       style="stroke-linejoin:miter;stroke-miterlimit:10">
      <title
         id="title7264">Squared Balloon</title>
      <rect
         x="80"
         y="65"
         width="250"
         height="140"
         rx="17"
         style="stroke:none"
         id="rect7266" />
      <path
         d="m 126,199 25,43 30,-43"
         style="stroke:none"
         id="path7268"
         inkscape:connector-curvature="0" />
      <rect
         x="75"
         y="60"
         width="250"
         height="140"
         rx="15"
         style="fill:#eeeeee;stroke-width:3.5"
         id="rect7270" />
      <path
         d="m 120,195 25,43 30,-43"
         style="fill:#eeeeee;stroke-width:3.5"
         id="path7272"
         inkscape:connector-curvature="0" />
      <rect
         x="80"
         y="65"
         width="235"
         height="125"
         rx="10"
         style="fill:#ffffff;stroke:none"
         id="rect7274" />
      <path
         d="m 118,180 25,43 30,-43"
         style="fill:#ffffff;stroke:none"
         id="path7276"
         inkscape:connector-curvature="0" />
    </symbol>
  </defs>
  <sodipodi:namedview
     id="base"
     pagecolor="#ffffff"
     bordercolor="#666666"
     borderopacity="1.0"
     inkscape:pageopacity="0.0"
     inkscape:pageshadow="2"
     inkscape:zoom="0.52671151"
     inkscape:cx="171.46956"
     inkscape:cy="370.72829"
     inkscape:document-units="px"
     inkscape:current-layer="g125545"
     showgrid="false"
     inkscape:window-width="2056"
     inkscape:window-height="780"
     inkscape:window-x="175"
     inkscape:window-y="144"
     inkscape:window-maximized="0"
     units="px" />
  <metadata
     id="metadata7">
    <rdf:RDF>
      <cc:Work
         rdf:about="">
        <dc:format>image/svg+xml</dc:format>
        <dc:type
           rdf:resource="http://purl.org/dc/dcmitype/StillImage" />
        <dc:title></dc:title>
      </cc:Work>
    </rdf:RDF>
  </metadata>
  <g
     inkscape:label="レイヤー 1"
     inkscape:groupmode="layer"
     id="layer1"
     transform="translate(0,-452.36213)">
    <g
       id="g125359"
       transform="matrix(0.87409418,0,0,0.81997267,46.842914,177.81395)"
       style="opacity:0.87999998">
      <g
         id="g125545"
         transform="matrix(0.03843116,0,0,0.03843116,546.87647,805.33384)">
        <g
           id="g125566"
           transform="translate(1.1583179e-4,0)">
          <g
             id="g125558">
            <g
               transform="matrix(4.6061291,-1.7903938,1.6043664,4.5233834,-184.46437,-8800.2936)"
               id="g125426">
              <path
                 transform="matrix(2.1393113,0,0,2.2498113,-2933.5632,-560.72686)"
                 style="opacity:0.9;fill:#898989;fill-opacity:1"
                 d="m 459.13219,280.67561 c -37.6565,-12.18501 -70.16507,-29.88018 -103.61646,-56.40087 -38.96563,-30.89245 -68.75847,-65.72562 -78.10405,-91.3177 -4.04724,-11.08306 -7.68026,-26.71224 -8.69606,-37.41032 l -0.64524,-6.795606 4.07379,1.55017 c 2.24058,0.852584 5.65867,2.228394 7.59577,3.057376 l 3.522,1.507209 -2.75135,-7.833879 c -4.48785,-12.778325 -5.07505,-22.149683 -2.52837,-40.351945 1.35428,-9.679689 2.65858,-15.909088 3.3042,-15.781084 0.58667,0.116318 3.37308,4.018035 6.19202,8.67047 2.81894,4.652434 5.30804,8.495206 5.53133,8.539477 0.22332,0.04427 0.031,-5.157308 -0.42742,-11.55907 -0.64454,-9.001285 -0.20631,-16.435708 1.93336,-32.7991635 1.99831,-15.2823915 2.65323,-25.3167105 2.35789,-36.1262875 -0.76469,-27.987343 0.91476,-45.668204 8.38458,-88.271477 4.78899,-27.31359 8.56911,-45.47663 12.64476,-60.75679 6.62324,-24.83146 16.40178,-57.69221 17.38092,-58.40862 1.07459,-0.78623 28.55025,10.20699 41.9679,16.79166 41.18898,20.2134 77.85138,46.37958 112.32367,80.16612 l 10.09589,9.89506 9.13494,-0.0651 c 16.72663,-0.11915 47.55277,4.54396 69.44544,10.5051 10.85623,2.95603 23.43646,6.91686 27.95608,8.80185 l 8.21746,3.42723 16.0637,-6.75408 c 28.71015,-12.07134 68.79676,-23.07043 99.97249,-27.43074 24.36737,-3.40809 71.17621,-4.87305 72.84587,-2.27983 0.78425,1.21804 -0.51734,27.27863 -2.80054,56.07313 -1.26723,15.981638 -3.63713,32.563363 -9.39611,65.742521 -8.33934,48.045271 -11.91573,62.128195 -22.55873,88.829887 -3.86065,9.685793 -6.00142,17.285528 -8.60455,30.54615 -3.19776,16.289672 -5.9759,24.947882 -13.20409,41.151182 -1.01107,2.26652 0.51068,1.57925 7.44132,-3.3607 l 8.71231,-6.20987 0.007,4.71177 c 0.009,6.28635 -4.27866,23.46257 -7.90702,31.67386 -3.10872,7.03531 -6.67775,12.63641 -12.12468,19.02803 l -3.35626,3.93835 4.56114,0.003 c 2.50863,10e-4 6.0627,-0.0143 7.89792,-0.035 3.26048,-0.0369 3.3021,0.0517 1.82022,3.87591 -2.53109,6.53175 -13.4576,23.88228 -20.22372,32.11386 -8.45133,10.28178 -29.1852,25.33318 -47.89085,34.76554 -50.00301,25.21408 -106.07888,37.8427 -159.88549,36.00714 -14.5704,-0.49706 -53.52516,-7.17254 -66.66286,-11.42366 z M 428.09862,81.715531 c 21.69953,0.894066 20.11457,1.194222 23.67148,-4.48288 7.19799,-11.488563 11.02912,-21.62515 13.34766,-35.315847 1.91352,-11.299093 2.01398,-14.486094 0.69704,-22.112129 -3.9959,-23.1391855 -13.42535,-37.500707 -30.85416,-46.992462 -16.07326,-8.753504 -33.5518,-6.545608 -50.27558,6.350939 -13.66382,10.53684 -20.11713,21.44281686 -23.06774,38.984088 -1.94821,11.581869 -1.41242,26.946583 1.24064,35.579597 4.40366,14.329426 33.16213,26.667005 65.24066,27.988694 z M 412.10726,63.356175 c -6.87894,-4.2288 -14.7247,-16.92488 -15.85152,-25.651024 -1.15742,-8.963207 1.77969,-21.821739 6.46046,-28.2835256 8.39445,-11.5885117 20.35323,-16.7769603 32.92427,-14.284557 17.55489,3.4805291 28.70003,20.3670446 26.48919,40.1350066 -1.31295,11.739553 -4.99059,18.624528 -13.68366,25.617349 -10.88601,8.756847 -24.59314,9.687324 -36.33874,2.466751 z m 243.40618,62.174745 c 3.90122,-0.35036 10.24516,-1.69178 14.09768,-2.98092 5.82673,-1.94976 7.54573,-3.20744 10.22293,-7.47941 8.17274,-13.04118 13.78398,-30.915573 13.69283,-43.618072 -0.18078,-25.196274 -17.26994,-50.860546 -37.64087,-56.528566 -25.1524,-6.9984179 -48.63354,5.415937 -63.14804,33.385992 -3.50251,6.749478 -4.14692,9.186963 -5.76488,21.805664 -1.76561,13.770145 -1.5294,21.429616 1.07266,34.782482 l 1.03707,5.32194 11.6863,4.3281 c 6.42745,2.38045 12.91079,4.81309 14.4074,5.40587 6.06761,2.40324 33.47774,6.19293 40.33692,5.57692 z m -48.49975,-23.32451 c -6.3463,-4.029827 -12.57364,-13.183862 -14.83489,-21.806874 -2.65338,-10.118389 -0.40305,-23.826739 5.26012,-32.043147 8.26287,-11.988176 20.17361,-17.136839 33.32464,-14.405238 9.64628,2.003559 14.13744,5.071859 20.14089,13.759754 6.05165,8.757627 7.90401,17.470432 6.06384,28.521835 -3.35258,20.134369 -19.10472,32.6911 -37.56439,29.94423 -5.23686,-0.77925 -9.53222,-2.15574 -12.39021,-3.97056 z"
                 id="path125395"
                 inkscape:connector-curvature="0" />
              <path
                 transform="matrix(2.1393113,0,0,2.2498113,-2933.5632,-560.72686)"
                 style="opacity:0.9;fill:#000000;fill-opacity:1"
                 d="m 476.95192,241.9852 c -24.63206,-7.80003 -46.12509,-24.35142 -58.16859,-44.79456 -10.78961,-18.31474 -14.5968,-35.30398 -12.16846,-54.30057 l 1.43052,-11.1907 101.52787,20.12947 101.52787,20.12948 -2.53325,10.12667 c -9.29624,37.16173 -41.49238,63.2584 -81.59539,66.13743 -17.14205,1.23064 -32.47533,-0.68133 -50.02057,-6.23722 z m 39.40333,-5.82914 c 7.73146,0.16726 21.76081,-1.4711 23.69556,-2.76719 1.57179,-1.05294 -3.45245,-9.31301 -9.40955,-15.46977 -7.17932,-7.41992 -16.60509,-12.12666 -29.48153,-14.72152 -18.18099,-3.66386 -30.742,-1.58198 -42.99365,7.12573 l -6.64811,4.72507 2.61491,2.19263 c 4.27614,3.58561 18.10649,10.3216 27.3337,13.31269 9.35418,3.03228 23.87573,5.36411 34.88867,5.60236 z M 500.8112,136.33702 c -6.7423,-4.5131 -15.44584,-17.26882 -17.59664,-25.78926 -2.16754,-8.58678 -0.9379,-14.017481 3.82553,-16.89538 6.10312,-3.687292 14.36501,-3.612896 33.76117,0.304006 15.82907,3.196539 17.99197,3.909081 23.64412,7.789194 8.33178,5.71963 9.38378,9.38701 5.13369,17.8964 -3.77317,7.55448 -15.6063,17.26963 -24.36989,20.00799 -8.52156,2.66273 -17.23905,1.479 -24.39798,-3.31295 z M 415.16071,64.445478 c -13.77365,-7.208309 -20.84064,-22.979405 -17.78052,-39.6801 3.67641,-20.0642444 20.13532,-32.5773984 38.1516,-29.005392 18.3156,3.63135252 29.285,21.707163 25.65564,42.276404 -1.75131,9.925777 -5.06827,15.887022 -12.56765,22.586962 -8.25622,7.376084 -23.3693,9.102498 -33.45907,3.822126 z M 611.5653,103.96924 c -6.00077,-3.01847 -11.59904,-8.528886 -15.19766,-14.95912 -12.1333,-21.680599 0.70697,-51.585776 23.59099,-54.943764 7.38649,-1.0839 18.00873,1.640439 23.68874,6.075538 22.67436,17.704696 15.05498,58.256809 -12.23759,65.131366 -6.54849,1.64945 -15.08856,1.08827 -19.84448,-1.30402 z"
                 id="path125393"
                 inkscape:connector-curvature="0" />
              <g
                 id="g125410">
                <ellipse
                   ry="23.335123"
                   rx="23.642962"
                   cy="-534.94263"
                   cx="-2006.9823"
                   id="path125406"
                   style="opacity:0.98000004;fill:#ffffff;fill-opacity:1;fill-rule:nonzero;stroke:#ff0000;stroke-width:0;stroke-linejoin:round;stroke-miterlimit:4;stroke-dasharray:none;stroke-dashoffset:0;stroke-opacity:1" />
                <ellipse
                   style="opacity:0.98000004;fill:#ffffff;fill-opacity:1;fill-rule:nonzero;stroke:#ff0000;stroke-width:0;stroke-linejoin:round;stroke-miterlimit:4;stroke-dasharray:none;stroke-dashoffset:0;stroke-opacity:1"
                   id="ellipse125408"
                   cx="-1600.2283"
                   cy="-449.03174"
                   rx="23.642962"
                   ry="23.335123" />
              </g>
            </g>
          </g>
          <g
             id="g125539"
             transform="translate(-12296.184,-8968.4825)">
            <ellipse
               ry="5088.3408"
               rx="5930.1328"
               cy="7518.0811"
               cx="4052.7061"
               id="path125537"
               style="opacity:0.98000004;fill:#ffffff;fill-opacity:1;fill-rule:nonzero;stroke:#ff0000;stroke-width:0;stroke-linejoin:round;stroke-miterlimit:4;stroke-dasharray:none;stroke-dashoffset:0;stroke-opacity:1" />
            <g
               transform="matrix(14.579275,0,0,15.332325,-2763.7274,-49.180883)"
               id="g125399">
              <g
                 id="g125374"
                 transform="matrix(1.4331061,0,0,1.1255113,2640.2592,-507.58471)"
                 style="fill:#000000;fill-opacity:1">
                <path
                   style="fill:#4c4c4c;fill-opacity:1"
                   d="m -1776.5445,1275.3978 c 0,-0.2989 1.336,-2.9736 2.9688,-5.9438 3.523,-6.4083 3.7465,-6.3356 -10.9771,-3.5709 -5.3484,1.0043 -10.156,1.8268 -10.6835,1.8277 -1.8783,0 12.3968,-26.6086 27.475,-51.2196 18.3791,-29.9987 27.8568,-49.6811 32.0053,-66.4656 2.524,-10.2121 3.034,-14.9907 3.1357,-29.3815 0.1174,-16.6209 0.027,-17.308 -2.7387,-20.8981 -15.3484,-19.9208 -22.2945,-29.5227 -27.6682,-38.2469 -23.6809,-38.4462 -37.9025,-77.74946 -45.1923,-124.89525 -2.9455,-19.04978 -2.9349,-70.88846 0.019,-90.6092 8.1459,-54.39264 29.02,-105.36374 60.2839,-147.20359 60.8414,-81.42274 158.2708,-125.57547 256.8108,-116.38067 109.0601,10.1764 203.8512,83.53366 245.7675,190.19532 6.8934,17.54127 19.6641,59.20153 23.0497,75.19233 6.334,29.91672 8.1602,70.63185 4.5591,101.64753 -11.6224,100.10183 -71.4771,188.67063 -157.8281,233.54313 -21.567,11.2073 -35.2958,16.6166 -57.1275,22.5086 -27.7636,7.4929 -40.5361,9.0905 -72.7212,9.0961 -28.9946,0 -41.3309,-1.2773 -64.1353,-6.6665 -13.8827,-3.2808 -34.3634,-10.0508 -45.3531,-14.9918 l -9.3847,-4.2195 -4.7195,8.3265 c -20.4623,36.1016 -54.1248,57.9036 -109.7918,71.1083 -16.2113,3.8455 -37.7534,7.9808 -37.7534,7.2474 z m 28.601,-32.2854 c 42.4986,-10.2014 69.9087,-24.327 89.8967,-46.3278 13.0976,-14.4165 20.614,-26.9396 27.8818,-46.4541 1.4364,-3.8569 2.9048,-7.0124 3.2631,-7.0124 1.5512,0 5.947,5.4911 5.947,7.4287 0,1.169 -1.0186,4.6586 -2.2635,7.7547 l -2.2636,5.6292 2.5496,1.0229 c 50.6827,20.3351 102.5707,25.8445 155.2791,16.4875 115.0441,-20.4231 208.1828,-114.6868 231.0382,-233.82877 7.4454,-38.81186 6.7694,-83.14313 -1.8633,-122.18778 -18.3127,-82.82605 -72.5701,-155.39918 -145.9632,-195.23611 -31.3326,-17.007 -60.6486,-26.58471 -96.9403,-31.67089 -20.363,-2.85381 -64.6628,-1.91937 -84.087,1.77372 -101.9971,19.39252 -183.818,89.76925 -219.9061,189.14813 -10.592,29.16826 -16.0923,58.93211 -17.1359,92.72757 -1.3567,43.93692 6.2026,85.28895 22.8991,125.26673 9.1021,21.7936 24.4747,48.467 37.7842,65.5601 l 2.8488,3.6586 3.3026,-3.3537 c 4.0003,-4.0625 4.4648,-4.1169 5.2086,-0.6098 6.1988,29.2254 7.7247,47.0305 5.5293,64.5219 -3.6793,29.3139 -11.4356,48.0298 -37.4775,90.4332 -6.5123,10.6039 -11.8406,19.5842 -11.8406,19.9562 0,1.0473 9.3909,-0.6258 26.3129,-4.6878 z"
                   id="path125376"
                   inkscape:connector-curvature="0" />
              </g>
            </g>
          </g>
        </g>
      </g>
    </g>
  </g>
</svg>
